Wavefont-wmin,rmin,amax.ufo
<glyph name="_11" format="2">
	<unicode hex="010B"/>
	<advance width="1"/>
	<outline>
		<component base="cap" yOffset="890"/>
		<component base="cap" yOffset="1000"/>
		<contour>
			<point x="0" y="890" type="line"/>
			<point x="0" y="1000" type="line"/>
			<point x="1" y="1000" type="line"/>
			<point x="1" y="890" type="line"/>
		</contour>
	</outline>
</glyph>
<glyph name="_14" format="2">
	<unicode hex="010E"/>
	<unicode hex="2582"/>
	<unicode hex="0068"/>
	<advance width="4"/>
	<outline>
		<component base="cap" yOffset="860"/>
		<component base="cap" yOffset="1000"/>
		<contour>
			<point x="0" y="860" type="line"/>
			<point x="0" y="1000" type="line"/>
			<point x="4" y="1000" type="line"/>
			<point x="4" y="860" type="line"/>
		</contour>
	</outline>
</glyph>
<glyph name="_15" format="2">
	<unicode hex="010F"/>
	<advance width="1"/>
	<outline>
		<component base="cap" yOffset="850"/>
		<component base="cap" yOffset="1000"/>
		<contour>
			<point x="0" y="850" type="line"/>
			<point x="0" y="1000" type="line"/>
			<point x="1" y="1000" type="line"/>
			<point x="1" y="850" type="line"/>
		</contour>
	</outline>
</glyph>
<glyph name="_19" format="2">
	<unicode hex="0113"/>
	<advance width="5"/>
	<outline>
		<component base="cap" yOffset="810"/>
		<component base="cap" yOffset="1000"/>
		<contour>
			<point x="0" y="810" type="line"/>
			<point x="0" y="1000" type="line"/>
			<point x="5" y="1000" type="line"/>
			<point x="5" y="810" type="line"/>
		</contour>
	</outline>
</glyph>
<glyph name="_23" format="2">
	<unicode hex="0117"/>
	<advance width="1"/>
	<outline>
		<component base="cap" yOffset="770"/>
		<component base="cap" yOffset="1000"/>
		<contour>
			<point x="0" y="770" type="line"/>
			<point x="0" y="1000" type="line"/>
			<point x="1" y="1000" type="line"/>
			<point x="1" y="770" type="line"/>
		</contour>
	</outline>
</glyph>
<glyph name="_31" format="2">
	<unicode hex="011F"/>
	<advance width="1"/>
	<outline>
		<component base="cap" yOffset="690"/>
		<component base="cap" yOffset="1000"/>
		<contour>
			<point x="0" y="690" type="line"/>
			<point x="0" y="1000" type="line"/>
			<point x="1" y="1000" type="line"/>
			<point x="1" y="690" type="line"/>
		</contour>
	</outline>
</glyph>
<glyph name="_35" format="2">
	<unicode hex="0123"/>
	<advance width="5"/>
	<outline>
		<component base="cap" yOffset="650"/>
		<component base="cap" yOffset="1000"/>
		<contour>
			<point x="0" y="650" type="line"/>
			<point x="0" y="1000" type="line"/>
			<point x="5" y="1000" type="line"/>
			<point x="5" y="650" type="line"/>
		</contour>
	</outline>
</glyph>
<glyph name="_37" format="2">
	<unicode hex="0125"/>
	<advance width="1"/>
	<outline>
		<component base="cap" yOffset="630"/>
		<component base="cap" yOffset="1000"/>
		<contour>
			<point x="0" y="630" type="line"/>
			<point x="0" y="1000" type="line"/>
			<point x="1" y="1000" type="line"/>
			<point x="1" y="630" type="line"/>
		</contour>
	</outline>
</glyph>
<glyph name="_39" format="2">
	<unicode hex="0127"/>
	<advance width="4"/>
	<outline>
		<component base="cap" yOffset="610"/>
		<component base="cap" yOffset="1000"/>
		<contour>
			<point x="0" y="610" type="line"/>
			<point x="0" y="1000" type="line"/>
			<point x="4" y="1000" type="line"/>
			<point x="4" y="610" type="line"/>
		</contour>
	</outline>
</glyph>
<glyph name="_40" format="2">
	<unicode hex="0128"/>
	<unicode hex="0034"/>
	<unicode hex="0075"/>
	<advance width="5"/>
	<outline>
		<component base="cap" yOffset="600"/>
		<component base="cap" yOffset="1000"/>
		<contour>
			<point x="0" y="600" type="line"/>
			<point x="0" y="1000" type="line"/>
			<point x="5" y="1000" type="line"/>
			<point x="5" y="600" type="line"/>
		</contour>
	</outline>
</glyph>
<glyph name="_42" format="2">
	<unicode hex="012A"/>
	<unicode hex="2584"/>
	<unicode hex="0076"/>
	<advance width="1"/>
	<outline>
		<component base="cap" yOffset="580"/>
		<component base="cap" yOffset="1000"/>
		<contour>
			<point x="0" y="580" type="line"/>
			<point x="0" y="1000" type="line"/>
			<point x="1" y="1000" type="line"/>
			<point x="1" y="580" type="line"/>
		</contour>
	</outline>
</glyph>
<glyph name="_44" format="2">
	<unicode hex="012C"/>
	<unicode hex="0077"/>
	<advance width="5"/>
	<outline>
		<component base="cap" yOffset="560"/>
		<component base="cap" yOffset="1000"/>
		<contour>
			<point x="0" y="560" type="line"/>
			<point x="0" y="1000" type="line"/>
			<point x="5" y="1000" type="line"/>
			<point x="5" y="560" type="line"/>
		</contour>
	</outline>
</glyph>
<glyph name="_48" format="2">
	<unicode hex="0130"/>
	<unicode hex="0079"/>
	<advance width="5"/>
	<outline>
		<component base="cap" yOffset="520"/>
		<component base="cap" yOffset="1000"/>
		<contour>
			<point x="0" y="520" type="line"/>
			<point x="0" y="1000" type="line"/>
			<point x="5" y="1000" type="line"/>
			<point x="5" y="520" type="line"/>
		</contour>
	</outline>
</glyph>
<glyph name="_61" format="2">
	<unicode hex="013D"/>
	<advance width="5"/>
	<outline>
		<component base="cap" yOffset="390"/>
		<component base="cap" yOffset="1000"/>
		<contour>
			<point x="0" y="390" type="line"/>
			<point x="0" y="1000" type="line"/>
			<point x="5" y="1000" type="line"/>
			<point x="5" y="390" type="line"/>
		</contour>
	</outline>
</glyph>
<glyph name="_68" format="2">
	<unicode hex="0144"/>
	<unicode hex="0049"/>
	<advance width="5"/>
	<outline>
		<component base="cap" yOffset="320"/>
		<component base="cap" yOffset="1000"/>
		<contour>
			<point x="0" y="320" type="line"/>
			<point x="0" y="1000" type="line"/>
			<point x="5" y="1000" type="line"/>
			<point x="5" y="320" type="line"/>
		</contour>
	</outline>
</glyph>
<glyph name="_69" format="2">
	<unicode hex="0145"/>
	<advance width="5"/>
	<outline>
		<component base="cap" yOffset="310"/>
		<component base="cap" yOffset="1000"/>
		<contour>
			<point x="0" y="310" type="line"/>
			<point x="0" y="1000" type="line"/>
			<point x="5" y="1000" type="line"/>
			<point x="5" y="310" type="line"/>
		</contour>
	</outline>
</glyph>
<glyph name="_73" format="2">
	<unicode hex="0149"/>
	<advance width="1"/>
	<outline>
		<component base="cap" yOffset="270"/>
		<component base="cap" yOffset="1000"/>
		<contour>
			<point x="0" y="270" type="line"/>
			<point x="0" y="1000" type="line"/>
			<point x="1" y="1000" type="line"/>
			<point x="1" y="270" type="line"/>
		</contour>
	</outline>
</glyph>
<glyph name="_84" format="2">
	<unicode hex="0154"/>
	<unicode hex="0051"/>
	<advance width="5"/>
	<outline>
		<component base="cap" yOffset="160"/>
		<component base="cap" yOffset="1000"/>
		<contour>
			<point x="0" y="160" type="line"/>
			<point x="0" y="1000" type="line"/>
			<point x="5" y="1000" type="line"/>
			<point x="5" y="160" type="line"/>
		</contour>
	</outline>
</glyph>
<glyph name="_89" format="2">
	<unicode hex="0159"/>
	<advance width="5"/>
	<outline>
		<component base="cap" yOffset="110"/>
		<component base="cap" yOffset="1000"/>
		<contour>
			<point x="0" y="110" type="line"/>
			<point x="0" y="1000" type="line"/>
			<point x="5" y="1000" type="line"/>
			<point x="5" y="110" type="line"/>
		</contour>
	</outline>
</glyph>
<glyph name="_91" format="2">
	<unicode hex="015B"/>
	<advance width="4"/>
	<outline>
		<component base="cap" yOffset="90"/>
		<component base="cap" yOffset="1000"/>
		<contour>
			<point x="0" y="90" type="line"/>
			<point x="0" y="1000" type="line"/>
			<point x="4" y="1000" type="line"/>
			<point x="4" y="90" type="line"/>
		</contour>
	</outline>
</glyph>
<glyph name="_94" format="2">
	<unicode hex="015E"/>
	<unicode hex="0056"/>
	<advance width="5"/>
	<outline>
		<component base="cap" yOffset="60"/>
		<component base="cap" yOffset="1000"/>
		<contour>
			<point x="0" y="60" type="line"/>
			<point x="0" y="1000" type="line"/>
			<point x="5" y="1000" type="line"/>
			<point x="5" y="60" type="line"/>
		</contour>
	</outline>
</glyph>
<glyph name="_97" format="2">
	<unicode hex="0161"/>
	<advance width="5"/>
	<outline>
		<component base="cap" yOffset="30"/>
		<component base="cap" yOffset="1000"/>
		<contour>
			<point x="0" y="30" type="line"/>
			<point x="0" y="1000" type="line"/>
			<point x="5" y="1000" type="line"/>
			<point x="5" y="30" type="line"/>
		</contour>
	</outline>
</glyph>
<glyph name="_101" format="2">
	<unicode hex="0165"/>
	<advance width="5"/>
	<outline>
		<component base="cap" yOffset="-10"/>
		<component base="cap" yOffset="1000"/>
		<contour>
			<point x="0" y="-10" type="line"/>
			<point x="0" y="1000" type="line"/>
			<point x="5" y="1000" type="line"/>
			<point x="5" y="-10" type="line"/>
		</contour>
	</outline>
</glyph>
<glyph name="_115" format="2">
	<unicode hex="0173"/>
	<advance width="4"/>
	<outline>
		<component base="cap" yOffset="-150"/>
		<component base="cap" yOffset="1000"/>
		<contour>
			<point x="0" y="-150" type="line"/>
			<point x="0" y="1000" type="line"/>
			<point x="4" y="1000" type="line"/>
			<point x="4" y="-150" type="line"/>
		</contour>
	</outline>
</glyph>
<glyph name="_117" format="2">
	<unicode hex="0175"/>
	<advance width="1"/>
	<outline>
		<component base="cap" yOffset="-170"/>
		<component base="cap" yOffset="1000"/>
		<contour>
			<point x="0" y="-170" type="line"/>
			<point x="0" y="1000" type="line"/>
			<point x="1" y="1000" type="line"/>
			<point x="1" y="-170" type="line"/>
		</contour>
	</outline>
</glyph>
<glyph name="_12.clip" format="2">
	<advance width="5"/>
	<outline>
		<contour>
			<point x="0" y="1000"/>
			<point x="0" y="1000"/>
			<point x="0" y="1000" type="curve" smooth="yes"/>
			<point x="5" y="1000" type="line"/>
			<point x="5" y="1000"/>
			<point x="5" y="1000"/>
			<point x="5" y="1000" type="curve" smooth="yes"/>
			<point x="5" y="880" type="line"/>
			<point x="5" y="880"/>
			<point x="5" y="880"/>
			<point x="5" y="880" type="curve" smooth="yes"/>
			<point x="0" y="880" type="line"/>
			<point x="0" y="880"/>
			<point x="0" y="880"/>
			<point x="0" y="880" type="curve" smooth="yes"/>
			<point x="0" y="1000" type="line"/>
		</contour>
	</outline>
</glyph>
<glyph name="_17.clip" format="2">
	<advance width="5"/>
	<outline>
		<contour>
			<point x="0" y="1000"/>
			<point x="0" y="1000"/>
			<point x="0" y="1000" type="curve" smooth="yes"/>
			<point x="5" y="1000" type="line"/>
			<point x="5" y="1000"/>
			<point x="5" y="1000"/>
			<point x="5" y="1000" type="curve" smooth="yes"/>
			<point x="5" y="830" type="line"/>
			<point x="5" y="830"/>
			<point x="5" y="830"/>
			<point x="5" y="830" type="curve" smooth="yes"/>
			<point x="0" y="830" type="line"/>
			<point x="0" y="830"/>
			<point x="0" y="830"/>
			<point x="0" y="830" type="curve" smooth="yes"/>
			<point x="0" y="1000" type="line"/>
		</contour>
	</outline>
</glyph>
<glyph name="_27.clip" format="2">
	<advance width="4"/>
	<outline>
		<contour>
			<point x="0" y="1000"/>
			<point x="0" y="1000"/>
			<point x="0" y="1000" type="curve" smooth="yes"/>
			<point x="4" y="1000" type="line"/>
			<point x="4" y="1000"/>
			<point x="4" y="1000"/>
			<point x="4" y="1000" type="curve" smooth="yes"/>
			<point x="4" y="730" type="line"/>
			<point x="4" y="730"/>
			<point x="4" y="730"/>
			<point x="4" y="730" type="curve" smooth="yes"/>
			<point x="0" y="730" type="line"/>
			<point x="0" y="730"/>
			<point x="0" y="730"/>
			<point x="0" y="730" type="curve" smooth="yes"/>
			<point x="0" y="1000" type="line"/>
		</contour>
	</outline>
</glyph>
<glyph name="_9.clip" format="2">
	<advance width="4"/>
	<outline>
		<contour>
			<point x="0" y="1000"/>
			<point x="0" y="1000"/>
			<point x="0" y="1000" type="curve" smooth="yes"/>
			<point x="4" y="1000" type="line"/>
			<point x="4" y="1000"/>
			<point x="4" y="1000"/>
			<point x="4" y="1000" type="curve" smooth="yes"/>
			<point x="4" y="910" type="line"/>
			<point x="4" y="910"/>
			<point x="4" y="910"/>
			<point x="4" y="910" type="curve" smooth="yes"/>
			<point x="0" y="910" type="line"/>
			<point x="0" y="910"/>
			<point x="0" y="910"/>
			<point x="0" y="910" type="curve" smooth="yes"/>
			<point x="0" y="1000" type="line"/>
		</contour>
	</outline>
</glyph>
